# xmcd CD database file
# Copyright (C) 1995-1998 Ti Kan
#
# Track frame offsets:
#	150
#	16906
#	25704
#	48009
#	64609
#	78462
#	93856
#	111152
#	125515
#	139734
#	154865
#	172132
#	193915
#	206408
#	224846
#	244127
#	261371
#	271367
#	283525
#	300632
#
# Disc length: 4213 seconds
#
# Revision: 5
# Processed by: cddbd v1.4PL0 Copyright (c) Steve Scherf et al.
# Submitted via: CDex 1.40Beta1
#
DISCID=23107314
DTITLE=Tony Joe White - The Best of Tony Joe White
DYEAR=1993
DGENRE=Blues
TTITLE0=Polk Salad Annie
TTITLE1=Soul Francisco
TTITLE2=Willie and Laura Mae Jones
TTITLE3=Rainy Night in Georgia
TTITLE4=Roosevelt and Ira Lee (Night of the Mossacin)
TTITLE5=Stockholm Blues
TTITLE6=High Sheriff of Calhoun Parrish
TTITLE7=Old Man Willis
TTITLE8=The Train I'm on
TTITLE9=If I ever saw a good Thing
TTITLE10=As the Crow flies
TTITLE11=Even Trolls love Rock and Roll
TTITLE12=Backwoods Preacher Man
TTITLE13=Takin' the Midnight Train
TTITLE14=Did somebody make a Fool out of you
TTITLE15=They caught the Devil and put him in Jail in Eudora, Arkansas
TTITLE16=Saturday Night in Oak Grove, Lousiana
TTITLE17=I've got a Thing about you Baby
TTITLE18=For ol' Times sake
TTITLE19=Ol' Mother Earth
EXTD=YEAR: 1993 ID3G:   0
EXTT0=
EXTT1=
EXTT2=
EXTT3=
EXTT4=
EXTT5=
EXTT6=
EXTT7=
EXTT8=
EXTT9=
EXTT10=
EXTT11=
EXTT12=
EXTT13=
EXTT14=
EXTT15=
EXTT16=
EXTT17=
EXTT18=
EXTT19=
PLAYORDER=
